<?xml version="1.0" standalone="no"?><!DOCTYPE svg PUBLIC "-//W3C//DTD SVG 1.1//EN" "http://www.w3.org/Graphics/SVG/1.1/DTD/svg11.dtd"><svg t="1693805680450" class="icon" viewBox="0 0 1024 1024" version="1.1" xmlns="http://www.w3.org/2000/svg" p-id="5118" xmlns:xlink="http://www.w3.org/1999/xlink" width="200" height="200"><path d="M433.152 146.176L154.88 275.712a37.2224 37.2224 0 0 0-21.504 33.792v571.776h352.896V179.968c0-27.264-28.416-45.312-53.12-33.792z m-31.104 437.376H217.472v-62.464h184.704v62.464z m0-127.488H217.472v-62.464h184.704v62.464zM892.8 499.456L614.4 369.92c-24.704-11.52-52.992 6.528-52.992 33.792v477.568h352.896v-348.16a37.12 37.12 0 0 0-21.504-33.664z m-62.592 155.648H645.504V592.64h184.704v62.464z" p-id="5119"></path></svg>