<?xml version="1.0" standalone="no"?><!DOCTYPE svg PUBLIC "-//W3C//DTD SVG 1.1//EN" "http://www.w3.org/Graphics/SVG/1.1/DTD/svg11.dtd"><svg t="1693805649656" class="icon" viewBox="0 0 1024 1024" version="1.1" xmlns="http://www.w3.org/2000/svg" p-id="4006" xmlns:xlink="http://www.w3.org/1999/xlink" width="200" height="200"><path d="M511.999488 65.290005C265.314133 65.290005 65.290517 265.279852 65.290517 511.998977c0 246.710938 200.024639 446.709995 446.708971 446.709995 246.64954 0 446.708971-199.999057 446.708971-446.709995C958.70846 265.279852 758.718613 65.290005 511.999488 65.290005L511.999488 65.290005zM511.999488 367.620705l0-0.38374L511.999488 367.620705l0 0.096191L511.999488 367.620705 511.999488 367.620705zM512.156054 650.793066c-0.209778 0.680499-0.24457 1.39579-0.331551 2.102894C511.841899 652.215462 511.946276 651.456169 512.156054 650.793066L512.156054 650.793066zM748.108974 785.477558l-4.240581-0.348947c-11.533684-2.494821-20.188808-11.831466-21.898753-23.25975-6.665817-45.927005-28.774347-89.848331-62.2426-123.682927-40.396035-40.84015-92.77908-63.464427-147.46661-63.646576-55.000662 0.105401-107.470687 22.684652-148.023288 63.646576-33.346479 33.739429-55.420217 77.651544-62.207807 123.709533-1.692548 11.542894-10.172687 20.633946-21.673625 23.155373l-4.431939 0.410346-3.211135-0.149403c-15.755846-2.128477-26.488281-16.210193-24.429389-31.30396 3.76986-28.312836 12.076036-55.726186 24.726148-81.489966 2.460028-5.016247 5.078669-9.972119 7.834432-14.806217 12.249999-20.633946 27.012214-39.514969 43.956118-56.222489 3.786233-3.664459 7.624654-7.232728 11.585873-10.714016 21.969361-19.291368 46.363957-34.585703 72.80005-45.762253-6.160303-4.668323-12.092409-9.850345-17.624403-15.346523-32.194236-32.247448-49.923016-75.076906-49.923016-120.638591 0-45.51666 17.763572-88.337931 49.923016-120.620172 31.635511-31.574113 73.567529-49.329499 118.081349-49.923016l4.363378 0c44.652989 0.663102 86.567611 18.383696 118.063953 49.923016 32.246425 32.18605 49.957809 75.042113 49.957809 120.620172 0 45.473681-17.781992 88.304162-49.906643 120.585379-5.671163 5.609765-11.517311 10.723226-17.659195 15.347546 26.488281 11.192923 50.935066 26.548656 72.851215 45.814442 3.926426 3.437286 7.677866 6.997368 11.482519 10.592242 17.065677 16.760732 31.828916 35.605939 43.938722 56.161091 2.862187 5.052063 5.54939 9.973142 7.956206 15.041578 12.529361 25.424042 20.87033 52.810786 24.744567 81.375356 1.045819 7.216355-0.803295 14.475689-5.305843 20.469194s-11.027148 9.841136-18.443048 10.879792l-3.594875 0.192382L748.108974 785.477558zM510.131955 499.025501c0.820692-0.349971 1.989307-0.611937 3.332908-0.611937l0.402159 0C512.591983 498.510778 511.31899 498.668367 510.131955 499.025501L510.131955 499.025501zM511.999488 367.542934l0 0.00921L511.999488 367.542934 511.999488 367.542934 511.999488 367.542934zM635.699812 438.196087c0.121773-0.566912 0.314155-1.169639 0.522909-1.744737 2.094708-8.803503 3.315512-18.033725 3.315512-27.474748 0-9.466606-1.186012-18.680455-3.315512-27.700899-0.208754-0.645706-0.348947-1.230014-0.522909-1.850138-14.029528-54.757115-65.698305-98.337679-123.386168-98.337679l-0.645706 0c-57.723679 0-109.304452 43.580564-123.386168 98.337679-0.121773 0.636496-0.331551 1.230014-0.435928 1.850138-2.199085 8.994861-3.350304 18.243503-3.350304 27.700899 0 9.466606 1.186012 18.653849 3.350304 27.474748 0.121773 0.576121 0.314155 1.177825 0.435928 1.744737 13.977339 53.474912 65.104787 93.294826 122.461099 93.738941l0.890276 0 1.622964 0c57.304124-0.506537 108.379383-40.299845 122.426307-93.738941L635.699812 438.196087zM510.131955 499.025501c1.169639-0.384763 2.408863-0.611937 3.734044-0.611937l-0.402159 0C512.102842 498.510778 511.003811 498.703159 510.131955 499.025501L510.131955 499.025501zM510.131955 499.025501" p-id="4007"></path></svg>